<svg width="103" height="25" viewBox="0 0 103 25" fill="none" xmlns="http://www.w3.org/2000/svg">
<path d="M1 16.1164C1 16.1164 18.7778 24.8545 39.3492 16.1164C55.8571 9.10448 68.5049 16.1164 81 16.1164" stroke="white" stroke-width="2"/>
<path d="M17.76 14.82C17.76 12.24 16.36 9.96 13.3 9.96C10.16 9.96 8.72 12.48 8.72 15.12C8.72 17.82 10.2 20.18 13.46 20.18C15.08 20.18 16.32 19.66 17.44 18.44L16 17.2C15.26 18.04 14.44 18.32 13.48 18.32C11.8 18.32 10.86 17.3 10.78 15.72H17.7C17.74 15.42 17.76 15.12 17.76 14.82ZM10.78 14.06C10.92 12.84 11.72 11.68 13.3 11.68C14.76 11.68 15.74 12.62 15.78 14.02V14.06H10.78ZM25.1488 9.96C23.8688 9.96 22.7488 10.42 22.0688 11.36V10.14H20.0088V20H22.0688V15.9C22.0688 13.8 22.4288 11.76 24.5488 11.76C26.2488 11.76 26.4688 13.1 26.4688 14.26V20H28.5288V13.74C28.5288 11.32 27.3288 9.96 25.1488 9.96ZM36.1955 9.96C35.1155 9.96 33.9755 10.52 33.4755 11.76V10.14H31.3955V20H33.4555V14.86C33.4555 12.9 34.3155 11.92 35.7955 11.92C36.2555 11.92 36.6355 12.04 37.0155 12.26L38.0155 10.46C37.4155 10.1 36.8355 9.96 36.1955 9.96ZM39.4405 8.22H41.6405V6.06H39.4405V8.22ZM39.5205 20H41.5805V10.14H39.5205V20ZM51.0972 10.14V11.24C50.4172 10.34 49.2772 9.94 48.1172 9.94C45.4172 9.94 43.8972 12.08 43.8972 15.08C43.8972 18.2 45.5572 20.18 48.1172 20.18C49.3572 20.18 50.4772 19.68 51.0972 18.88V24.08H53.1572V10.14H51.0972ZM48.5972 18.38C46.8172 18.38 45.9572 17.08 45.9572 15.06C45.9572 12.98 46.8372 11.76 48.5772 11.76C50.3972 11.76 51.2972 13.1 51.2972 15.06C51.2972 16.96 50.4372 18.38 48.5972 18.38ZM62.4788 10.14V14.14C62.4788 16.18 62.1588 18.38 60.0188 18.38C58.1788 18.38 58.0788 16.74 58.0788 15.74V10.14H56.0188V16.26C56.0188 18.48 57.0388 20.18 59.4388 20.18C60.6388 20.18 61.7788 19.74 62.4788 18.76V20H64.5388V10.14H62.4788ZM75.7873 14.82C75.7873 12.24 74.3873 9.96 71.3273 9.96C68.1873 9.96 66.7473 12.48 66.7473 15.12C66.7473 17.82 68.2273 20.18 71.4873 20.18C73.1073 20.18 74.3473 19.66 75.4673 18.44L74.0273 17.2C73.2873 18.04 72.4673 18.32 71.5073 18.32C69.8273 18.32 68.8873 17.3 68.8073 15.72H75.7273C75.7673 15.42 75.7873 15.12 75.7873 14.82ZM68.8073 14.06C68.9473 12.84 69.7473 11.68 71.3273 11.68C72.7873 11.68 73.7673 12.62 73.8073 14.02V14.06H68.8073Z" fill="white"/>
</svg>
