<svg width="48" height="48" viewBox="0 0 48 48" fill="none" xmlns="http://www.w3.org/2000/svg">
<path fill-rule="evenodd" clip-rule="evenodd" d="M44.7342 11.9808C42.5903 8.30741 39.6822 5.3992 36.0092 3.25549C32.3356 1.11167 28.3251 0.0400391 23.975 0.0400391C19.6253 0.0400391 15.6136 1.112 11.9407 3.25549C8.26737 5.39909 5.35938 8.30741 3.21545 11.9808C1.07185 15.654 0 19.6653 0 24.0143C0 29.2386 1.52419 33.9363 4.57334 38.1088C7.62216 42.2817 11.5608 45.1691 16.3889 46.7715C16.9509 46.8758 17.3669 46.8024 17.6374 46.5532C17.908 46.3037 18.0432 45.9912 18.0432 45.6171C18.0432 45.5546 18.0378 44.993 18.0274 43.9314C18.0167 42.8698 18.0117 41.9437 18.0117 41.1535L17.2937 41.2777C16.8359 41.3616 16.2583 41.3971 15.5611 41.3871C14.8641 41.3773 14.1406 41.3043 13.3916 41.1685C12.6421 41.0339 11.9451 40.7217 11.2999 40.2327C10.655 39.7436 10.1972 39.1034 9.9266 38.3131L9.61443 37.5947C9.40636 37.1165 9.07878 36.5852 8.63125 36.0029C8.18373 35.42 7.73117 35.0248 7.27337 34.8167L7.0548 34.6603C6.90916 34.5563 6.77401 34.4309 6.64904 34.2854C6.52417 34.1398 6.43069 33.9942 6.36826 33.8483C6.30571 33.7024 6.35754 33.5826 6.52428 33.4887C6.69103 33.3948 6.99236 33.3492 7.42961 33.3492L8.05372 33.4425C8.46998 33.5259 8.98486 33.7751 9.59902 34.1915C10.2128 34.6077 10.7174 35.1487 11.1129 35.8144C11.5918 36.6679 12.1688 37.3182 12.8455 37.7657C13.5217 38.2133 14.2034 38.4366 14.8901 38.4366C15.5767 38.4366 16.1698 38.3846 16.6694 38.2811C17.1686 38.177 17.6369 38.0205 18.0741 37.8125C18.2614 36.4176 18.7714 35.346 19.6036 34.5969C18.4175 34.4722 17.3511 34.2845 16.4039 34.0349C15.4572 33.7849 14.4789 33.3793 13.4697 32.8168C12.46 32.2551 11.6223 31.5577 10.9566 30.7256C10.2907 29.8931 9.74422 28.8001 9.3179 27.4477C8.89137 26.0947 8.67805 24.534 8.67805 22.7651C8.67805 20.2465 9.50028 18.1032 11.1444 16.3341C10.3742 14.4406 10.4469 12.3179 11.3628 9.9662C11.9663 9.77868 12.8614 9.9194 14.0475 10.3875C15.2338 10.8558 16.1024 11.257 16.6541 11.5896C17.2059 11.9221 17.6479 12.2038 17.981 12.4323C19.9168 11.8914 21.9146 11.6209 23.9747 11.6209C26.0349 11.6209 28.0331 11.8914 29.9691 12.4323L31.1553 11.6835C31.9665 11.1838 32.9244 10.7259 34.0268 10.3096C35.1298 9.8936 35.9732 9.77901 36.5562 9.96653C37.4924 12.3183 37.5758 14.4409 36.8054 16.3345C38.4494 18.1036 39.272 20.2474 39.272 22.7655C39.272 24.5344 39.0579 26.1 38.632 27.4633C38.2056 28.8269 37.6544 29.9188 36.9783 30.7412C36.3013 31.5636 35.4583 32.2556 34.4491 32.8172C33.4397 33.3792 32.4611 33.7848 31.5145 34.0348C30.5674 34.2847 29.501 34.4725 28.3149 34.5974C29.3967 35.5336 29.9377 37.0113 29.9377 39.0299V45.6162C29.9377 45.9904 30.0678 46.3027 30.3282 46.5524C30.5884 46.8016 30.9991 46.8749 31.5611 46.7705C36.3899 45.1684 40.3285 42.2808 43.3772 38.108C46.4256 33.9355 47.9504 29.2377 47.9504 24.0135C47.9493 19.6649 46.8769 15.654 44.7342 11.9808Z" fill="white" fill-opacity="0.5"/>
</svg>
