<svg width="48" height="48" viewBox="0 0 48 48" fill="none" xmlns="http://www.w3.org/2000/svg">
<path d="M43.658 0H4.34199C1.944 0 0 1.944 0 4.34199V43.6579C0 46.056 1.944 48 4.34199 48H43.6579C46.056 48 48 46.056 48 43.6579V4.34199C48 1.944 46.056 0 43.658 0ZM14.8532 41.4464C14.8532 42.1442 14.2875 42.7099 13.5897 42.7099H8.21089C7.51301 42.7099 6.94731 42.1442 6.94731 41.4464V18.8988C6.94731 18.2009 7.51301 17.6352 8.21089 17.6352H13.5897C14.2875 17.6352 14.8532 18.2009 14.8532 18.8988V41.4464ZM10.9003 15.5098C8.0782 15.5098 5.79041 13.222 5.79041 10.3999C5.79041 7.57784 8.0782 5.29005 10.9003 5.29005C13.7223 5.29005 16.0101 7.57784 16.0101 10.3999C16.0101 13.222 13.7225 15.5098 10.9003 15.5098ZM42.9625 41.5481C42.9625 42.1897 42.4423 42.7099 41.8007 42.7099H36.0289C35.3873 42.7099 34.8671 42.1897 34.8671 41.5481V30.9721C34.8671 29.3943 35.3299 24.0584 30.744 24.0584C27.1868 24.0584 26.4653 27.7107 26.3205 29.3497V41.5481C26.3205 42.1897 25.8004 42.7099 25.1587 42.7099H19.5763C18.9347 42.7099 18.4145 42.1897 18.4145 41.5481V18.797C18.4145 18.1554 18.9347 17.6352 19.5763 17.6352H25.1587C25.8003 17.6352 26.3205 18.1554 26.3205 18.797V20.7641C27.6395 18.7847 29.5997 17.2569 33.7733 17.2569C43.0154 17.2569 42.9625 25.8914 42.9625 30.6356V41.5481Z" fill="white" fill-opacity="0.5"/>
</svg>
