<svg width="48" height="40" viewBox="0 0 48 40" fill="none" xmlns="http://www.w3.org/2000/svg">
<path fill-rule="evenodd" clip-rule="evenodd" d="M47.1395 4.69234C46.0752 5.16428 44.9704 5.5366 43.8367 5.80615C45.0859 4.61911 46.0251 3.13438 46.5549 1.47716C46.7062 1.00405 46.1923 0.594939 45.7651 0.848253C44.188 1.78373 42.4892 2.48551 40.7158 2.93433C40.6129 2.96037 40.5067 2.97357 40.4002 2.97357C40.0772 2.97357 39.7631 2.85363 39.5161 2.63593C37.6293 0.972983 35.2025 0.0571289 32.6831 0.0571289C31.5928 0.0571289 30.4921 0.227056 29.4113 0.562238C26.0628 1.60084 23.4791 4.363 22.6685 7.77088C22.3643 9.04913 22.282 10.3285 22.4236 11.5735C22.4398 11.7166 22.3722 11.8164 22.3305 11.8633C22.2572 11.9454 22.1534 11.9924 22.0456 11.9924C22.0336 11.9924 22.0212 11.9918 22.009 11.9907C14.6791 11.3097 8.06933 7.77836 3.39721 2.04732C3.15897 1.755 2.70209 1.79085 2.51219 2.11657C1.59727 3.68621 1.11377 5.48148 1.11377 7.30828C1.11377 10.1079 2.23856 12.7463 4.19231 14.6697C3.3707 14.4749 2.57549 14.1681 1.83681 13.7578C1.47943 13.5593 1.03973 13.8144 1.0347 14.2232C0.98355 18.3823 3.41859 22.0831 7.06635 23.7495C6.99289 23.7513 6.91943 23.7521 6.84586 23.7521C6.26764 23.7521 5.68218 23.6963 5.10594 23.5861C4.70349 23.5093 4.36539 23.8911 4.49035 24.2812C5.67435 27.9777 8.85707 30.7024 12.6658 31.321C9.50478 33.4429 5.82373 34.5622 1.99248 34.5622L0.798091 34.5615C0.430091 34.5615 0.11885 34.8014 0.0250686 35.1579C-0.067311 35.5089 0.10285 35.8793 0.41666 36.0618C4.73386 38.5743 9.65824 39.9022 14.6596 39.9022C19.0374 39.9022 23.1325 39.0334 26.8311 37.3201C30.2219 35.7494 33.2182 33.5041 35.7368 30.6467C38.0831 27.9848 39.9179 24.912 41.1899 21.5137C42.4025 18.2744 43.0435 14.8179 43.0435 11.5179V11.3607C43.0433 10.8309 43.283 10.3323 43.7011 9.9929C45.2877 8.70472 46.6693 7.18834 47.8074 5.48592C48.1079 5.0364 47.6339 4.47301 47.1395 4.69234Z" fill="white" fill-opacity="0.5"/>
</svg>
